<svg width="353" height="410" viewBox="0 0 353 410" fill="none" xmlns="http://www.w3.org/2000/svg">
<rect x="3.19241" width="229.255" height="5.26352" rx="2" transform="rotate(37.3379 3.19241 0)" fill="#F9CCC7"/>
<rect x="155.643" y="94.0188" width="127.142" height="5.26352" rx="2" transform="rotate(37.3379 155.643 94.0188)" fill="#F9CCC7"/>
<rect x="141.79" y="276.192" width="127.142" height="5.26352" rx="2" transform="rotate(37.3379 141.79 276.192)" fill="#F9CCC7"/>
<rect x="100.312" y="247.802" width="40.7026" height="5.26352" rx="2" transform="rotate(37.3379 100.312 247.802)" fill="#F9CCC7"/>
<rect x="46.0282" y="10.3192" width="127.142" height="5.26352" rx="2" transform="rotate(37.3379 46.0282 10.3192)" fill="#F9CCC7"/>
<rect x="131.012" y="52.938" width="127.142" height="5.26352" rx="2" transform="rotate(37.3379 131.012 52.938)" fill="#F9CCC7"/>
<rect x="123.52" y="24.9751" width="127.142" height="5.26352" rx="2" transform="rotate(37.3379 123.52 24.9751)" fill="#F9CCC7"/>
<rect x="182.828" y="286.993" width="127.142" height="5.26352" rx="2" transform="rotate(37.3379 182.828 286.993)" fill="#F9CCC7"/>
<rect x="73.2139" y="203.293" width="127.142" height="5.26352" rx="2" transform="rotate(37.3379 73.2139 203.293)" fill="#F9CCC7"/>
<rect x="158.198" y="245.912" width="127.142" height="5.26352" rx="2" transform="rotate(37.3379 158.198 245.912)" fill="#F9CCC7"/>
<rect x="109.29" y="317.595" width="127.142" height="5.26352" rx="2" transform="rotate(37.3379 109.29 317.595)" fill="#F9CCC7"/>
<rect x="88.9538" y="323.045" width="127.142" height="5.26352" rx="2" transform="rotate(37.3379 88.9538 323.045)" fill="#F9CCC7"/>
<rect x="67.8119" y="289.205" width="40.7026" height="5.26352" rx="2" transform="rotate(37.3379 67.8119 289.205)" fill="#F9CCC7"/>
<rect x="150.329" y="328.396" width="127.142" height="5.26352" rx="2" transform="rotate(37.3379 150.329 328.396)" fill="#F9CCC7"/>
<rect x="125.699" y="287.316" width="127.142" height="5.26352" rx="2" transform="rotate(37.3379 125.699 287.316)" fill="#F9CCC7"/>
<rect x="161.913" y="163.178" width="127.142" height="5.26352" rx="2" transform="rotate(37.3379 161.913 163.178)" fill="#F9CCC7"/>
<rect x="145.978" y="152.251" width="7.7184" height="5.26352" rx="2" transform="rotate(37.3379 145.978 152.251)" fill="#F9CCC7"/>
<rect x="73.6868" y="98.9409" width="80.0375" height="5.26352" rx="2" transform="rotate(37.3379 73.6868 98.9409)" fill="#F9CCC7"/>
<rect x="96.5869" y="179.321" width="80.0375" height="5.26352" rx="2" transform="rotate(37.3379 96.5869 179.321)" fill="#F9CCC7"/>
<rect x="195.596" y="147.342" width="170.56" height="5.26352" rx="2" transform="rotate(37.3379 195.596 147.342)" fill="#F9CCC7"/>
<rect x="180.775" y="158.124" width="170.56" height="5.26352" rx="2" transform="rotate(37.3379 180.775 158.124)" fill="#F9CCC7"/>
<rect x="38.1558" y="47.8485" width="170.56" height="5.26352" rx="2" transform="rotate(37.3379 38.1558 47.8485)" fill="#F9CCC7"/>
<rect x="24.9893" y="81.3469" width="229.255" height="5.26352" rx="2" transform="rotate(37.3379 24.9893 81.3469)" fill="#F9CCC7"/>
<rect x="183.71" y="244.525" width="127.142" height="5.26352" rx="2" transform="rotate(37.3379 183.71 244.525)" fill="#F9CCC7"/>
<rect x="167.775" y="233.599" width="7.7184" height="5.26352" rx="2" transform="rotate(37.3379 167.775 233.599)" fill="#F9CCC7"/>
<rect x="217.393" y="228.688" width="170.56" height="5.26352" rx="2" transform="rotate(37.3379 217.393 228.688)" fill="#F9CCC7"/>
<rect x="202.572" y="239.471" width="170.56" height="5.26352" rx="2" transform="rotate(37.3379 202.572 239.471)" fill="#F9CCC7"/>
<rect x="59.9527" y="129.195" width="170.56" height="5.26352" rx="2" transform="rotate(37.3379 59.9527 129.195)" fill="#F9CCC7"/>
</svg>
